<?xml version="1.0" encoding="utf-8"?>
<svg version="1.1" xmlns="http://www.w3.org/2000/svg" x="0px" y="0px" viewBox="0 0 4101 937">
<g id="Unzer_Logo">
	<path style="fill:#FC1154;" d="M1763.44,333.85v586.13h-240.12V429.84c0-120.78-89.25-185.96-173.19-185.96
		c-72.72,0-129.55,35.01-184.13,113.55v562.6H925.89V487.45c-24.24,8.45-49.15,15.55-73.64,21.05
		C839.39,757.97,664.32,935.82,426.5,935.82C179.37,935.82,0,743.77,0,479.17V20.26h240.16v458.92
		c0,99.05,48.82,214.75,186.38,214.75c126.55,0,177.99-97.92,185.38-190.75C512.16,460.89,450.4,359.02,450.4,223.74
		C450.4,83.63,554.13,1.22,654.18,1.22c128.01,0,198.85,128.43,198.19,256.06c0,0,35.51-12.82,73.52-34.54V20.21H1166v77.2
		C1248.16,30.09,1324.01,0,1411.55,0c96.71,0,185.88,34.08,251.01,95.99C1727.64,157.85,1763.44,242.32,1763.44,333.85z
		 M1859.2,233.49h406.55L1837.38,746.2l-0.33,0.38v173.4h761.2v-212.9h-430.79l430.46-519.56l0.33-0.38V20.26H1859.2V233.49z
		 M3376.26,125.87c80.53,82.29,123.08,199.03,123.08,337.63v83.46h-645.13c16.65,110.99,95.88,177.18,212.21,177.18
		c96.67,0,180.29-39.17,218.17-102.16l0.63-1.09l1.13,0.5l188.26,85.4l-0.67,1.34C3398.71,853.58,3248.96,937,3063,937
		c-267.03,0-446.44-187.56-446.44-466.74c0-131.62,47.61-251.65,134.06-338.01c83.07-83,194.01-128.72,312.43-128.72
		C3189.68,3.57,3297.95,45.85,3376.26,125.87z M3265.53,357.89c-19.74-92.88-95.3-148.22-202.48-148.22
		c-97.8,0-172.99,55.35-201.44,148.22H3265.53z M4101,13.66c-31.83-10.09-68.05-10.09-68.05-10.09
		c-78.77,0-154.75,30.64-219.88,88.59V20.26h-240.12v899.77h240.12V361.97c47.36-90.52,120.04-140.37,204.65-140.37
		c0,0,38.05,0.34,61.75,7.35L4101,13.66z"/>
</g>
</svg>
