<?xml version="1.0" encoding="UTF-8" standalone="no"?>
<svg width="198px" height="32px" viewBox="0 0 198 32" version="1.1" xmlns="http://www.w3.org/2000/svg" xmlns:xlink="http://www.w3.org/1999/xlink">
    <g id="Page-1" stroke="none" stroke-width="1" fill="none" fill-rule="evenodd">
        <g id="mpay24-logo-white" fill="#FFFFFF">
            <g id="Shape">
                <path d="M44.05,0.776 L44.05,31.964 L53.736,31.964 L53.736,20.393 L59.011,20.393 C62.892,20.393 65.783,19.499 67.686,17.729 C69.57,15.959 70.523,13.503 70.523,10.344 C70.523,7.28 69.644,4.923 67.912,3.268 C66.181,1.612 63.557,0.776 60.075,0.776 L44.05,0.776 L44.05,0.776 Z M80.435,0.776 L68.715,31.964 L78.568,31.964 L80.072,26.803 L91.05,26.803 L92.57,31.964 L102.66,31.964 L90.94,0.776 L80.435,0.776 L80.435,0.776 Z M98.89,0.776 L111.05,18.906 L111.05,31.982 L120.71,31.982 L120.71,18.906 L132.84,0.776 L122.2,0.776 L115.9,11.295 L109.6,0.776 L98.89,0.776 L98.89,0.776 Z M53.736,7.109 L56.478,7.109 C58.285,7.109 59.505,7.453 60.152,8.138 C60.818,8.823 61.139,9.64 61.139,10.629 C61.139,11.638 60.758,12.456 60.016,13.103 C59.254,13.75 57.962,14.078 56.097,14.078 L53.736,14.078 L53.736,7.109 L53.736,7.109 Z M15.912,8.845 C14.219,8.845 12.787,9.13 11.607,9.72 C10.427,10.309 9.248,11.28 8.087,12.669 L8.087,9.375 L0,9.375 L0,32 L8.681,32 L8.681,20.47 C8.681,18.758 8.986,17.521 9.633,16.76 C10.28,16.018 11.093,15.636 12.083,15.636 C12.692,15.636 13.226,15.805 13.682,16.147 C14.12,16.49 14.443,16.95 14.634,17.521 C14.748,17.883 14.806,18.547 14.806,19.537 L14.806,31.982 L23.482,31.982 L23.482,20.316 C23.482,18.679 23.787,17.502 24.415,16.76 C25.043,16.018 25.88,15.654 26.889,15.654 C27.745,15.654 28.469,16.033 29.059,16.813 C29.459,17.308 29.648,18.069 29.648,19.097 L29.648,31.964 L38.324,31.964 L38.324,17.765 C38.324,14.701 37.66,12.456 36.29,11.01 C34.939,9.564 33.034,8.845 30.617,8.845 C28.962,8.845 27.595,9.109 26.473,9.642 C25.35,10.156 24.089,11.186 22.738,12.651 C22.073,11.395 21.216,10.444 20.17,9.797 C19.123,9.169 17.72,8.845 15.912,8.845 Z M85.59,8.865 L89.033,20.074 L82.165,20.074 L85.59,8.865 L85.59,8.865 Z"></path>
                <path d="M163.24,31.848 L133.81,31.848 C134.15,29.279 135.18,26.863 136.89,24.598 C138.6,22.334 141.82,19.67 146.52,16.587 C149.39,14.704 151.24,13.277 152.04,12.287 C152.84,11.298 153.25,10.384 153.25,9.49 C153.25,8.539 152.85,7.72 152.06,7.054 C151.26,6.388 150.25,6.046 149.05,6.046 C147.79,6.046 146.77,6.388 145.97,7.092 C145.17,7.778 144.63,9.014 144.37,10.784 L134.53,10.08 C134.91,7.644 135.63,5.742 136.66,4.371 C137.69,3.001 139.14,1.955 141.02,1.232 C142.88,0.49 145.47,0.128 148.8,0.128 C152.25,0.128 154.95,0.471 156.87,1.175 C158.79,1.879 160.29,2.944 161.4,4.371 C162.5,5.818 163.05,7.435 163.05,9.224 C163.05,11.126 162.43,12.934 161.17,14.666 C159.91,16.397 157.61,18.3 154.3,20.374 C152.32,21.573 151.01,22.429 150.34,22.905 C149.68,23.38 148.88,24.008 147.98,24.788 L163.32,24.788 L163.32,31.848 L163.22,31.848 L163.24,31.848 Z M184.31,26.025 L166.44,26.025 L166.44,18.909 L184.33,0.147 L192.89,0.147 L192.89,19.308 L197.32,19.308 L197.32,26.025 L192.89,26.025 L192.89,31.848 L184.33,31.848 L184.33,26.025 L184.33,26.025 L184.31,26.025 Z M184.33,19.289 L184.33,9.49 L174.87,19.289 L184.33,19.289 L184.33,19.289 L184.33,19.289 Z"></path>
            </g>
        </g>
    </g>
</svg>
