<?xml version="1.0" encoding="UTF-8"?>
<svg width="198px" height="55px" viewBox="0 0 198 55" version="1.1" xmlns="http://www.w3.org/2000/svg" xmlns:xlink="http://www.w3.org/1999/xlink">
    <g stroke="none" stroke-width="1" fill="none" fill-rule="evenodd">
        <g fill-rule="nonzero">
            <g>
                <path d="M184.739018,19.0691564 L184.739018,9.32465021 L175.258286,19.0691564 L184.739018,19.0691564 Z M184.719629,25.7676132 L166.808841,25.7676132 L166.808841,18.6913992 L184.739018,0.0339506173 L193.318714,0.0339506173 L193.318714,19.0883951 L197.758203,19.0883951 L197.758203,25.7676132 L193.318714,25.7676132 L193.318714,31.5575514 L184.739018,31.5575514 L184.739018,25.7676132 L184.719629,25.7676132 Z M163.602518,31.5575514 L134.10759,31.5575514 C134.448159,29.0035597 135.479903,26.6007613 137.194382,24.3477984 C138.907265,22.0968724 142.13503,19.4475926 146.844601,16.3827572 C149.721988,14.5095885 151.575843,13.090679 152.377196,12.1061111 C153.179233,11.1226749 153.59006,10.21393 153.59006,9.32465021 C153.59006,8.37833333 153.189041,7.56510288 152.397954,6.90283951 C151.595233,6.24034979 150.583334,5.8994856 149.380507,5.8994856 C148.117915,5.8994856 147.095067,6.24034979 146.294627,6.94063786 C145.492134,7.62168724 144.950827,8.85183128 144.690553,10.6113786 L134.828647,9.91131687 C135.209592,7.48927984 135.93065,5.59709877 136.963306,4.23454733 C137.995051,2.87199588 139.449484,1.83152263 141.332537,1.11244856 C143.197113,0.37436214 145.793696,0.0149382716 149.13027,0.0149382716 C152.58797,0.0149382716 155.294274,0.355349794 157.218159,1.05563786 C159.1425,1.75569959 160.645521,2.81518519 161.7587,4.23454733 C162.860475,5.67292181 163.41159,7.28104938 163.41159,9.05938272 C163.41159,10.9517901 162.790217,12.7495885 161.527396,14.4715638 C160.265032,16.1930864 157.959518,18.0861728 154.642334,20.1476543 C152.658228,21.3402263 151.344995,22.1921605 150.673438,22.6647531 C150.012145,23.1380247 149.210336,23.761358 148.308843,24.5372428 L163.683041,24.5372428 L163.683041,31.5575514 L163.582901,31.5575514 L163.602518,31.5575514 Z" fill="#11A071"></path>
                <path d="M85.7798502,8.70176955 L89.2307074,19.8479835 L82.34747,19.8479835 L85.7798502,8.70176955 Z M15.9474401,8.68366255 C14.2500691,8.68366255 12.8154816,8.96635802 11.6331843,9.55302469 C10.4497465,10.138786 9.26836175,11.1047942 8.10476959,12.486358 L8.10476959,9.21012346 L0,9.21012346 L0,31.7089712 L8.70082258,31.7089712 L8.70082258,20.2440741 C8.70082258,18.5406584 9.00603456,17.3111934 9.65409677,16.553642 C10.302159,15.8160082 11.1171982,15.4364403 12.1097074,15.4364403 C12.719447,15.4364403 13.255735,15.6043827 13.7119562,15.9443416 C14.1512972,16.2856584 14.4754424,16.7433128 14.6661429,17.3111934 C14.7806544,17.6703909 14.8395069,18.3308436 14.8395069,19.3154115 L14.8395069,31.6917695 L23.5346267,31.6917695 L23.5346267,20.0906173 C23.5346267,18.4630247 23.8398387,17.2917284 24.4691959,16.553642 C25.098553,15.8160082 25.9373157,15.4545473 26.9483018,15.4545473 C27.806682,15.4545473 28.5320737,15.8311728 29.1228802,16.6063786 C29.5241267,17.0995679 29.714371,17.8557613 29.714371,18.8785802 L29.714371,31.6738889 L38.4092627,31.6738889 L38.4092627,17.5540535 C38.4092627,14.5066461 37.7438641,12.2740535 36.3704101,10.8361317 C35.01703,9.39798354 33.1075161,8.68366255 30.6852097,8.68366255 C29.0261613,8.68366255 27.6570415,8.94644033 26.5315438,9.47606996 C25.405818,9.98713992 24.1423134,11.0110905 22.7887051,12.468251 C22.1221659,11.2188683 21.2628733,10.2734568 20.2147051,9.62975309 C19.1653963,9.00528807 17.7597788,8.68366255 15.9474401,8.68366255 L15.9474401,8.68366255 Z M53.8555438,6.95693416 L56.6040484,6.95693416 C58.4143341,6.95693416 59.6370069,7.29893004 60.2857535,7.98020576 C60.9532051,8.66102881 61.2743848,9.47380658 61.2743848,10.4574691 C61.2743848,11.4605967 60.8925276,12.2740535 60.1488871,12.9173045 C59.3854009,13.5607819 58.0906452,13.8871605 56.2221912,13.8871605 L53.8555438,13.8871605 L53.8555438,6.95693416 L53.8555438,6.95693416 Z M99.1120023,0.659320988 L111.296074,18.6884568 L111.296074,31.6917695 L120.978,31.6917695 L120.978,18.6884568 L133.134698,0.659320988 L122.47144,0.659320988 L116.157567,11.1197325 L109.843009,0.659320988 L99.1120023,0.659320988 Z M80.6138295,0.659320988 L68.8672742,31.6738889 L78.7428664,31.6738889 L80.2502212,26.5407819 L91.2508548,26.5407819 L92.7757742,31.6738889 L102.888145,31.6738889 L91.1374839,0.659320988 L80.6138295,0.659320988 L80.6138295,0.659320988 Z M44.1476129,0.659320988 L44.1476129,31.6738889 L53.8555438,31.6738889 L53.8555438,20.1664403 L59.1417788,20.1664403 C63.0322051,20.1664403 65.9292097,19.2776132 67.8357581,17.5171605 C69.7247419,15.7578395 70.6800691,13.3154321 70.6800691,10.1738683 C70.6800691,7.12759259 69.799106,4.7831893 68.0627281,3.13703704 C66.3286313,1.49111111 63.6978318,0.659320988 60.208424,0.659320988 L44.1476129,0.659320988 L44.1476129,0.659320988 Z" fill="#336B9B"></path>
                <path d="M70.345659,45.4750412 L70.3737166,45.4750412 C70.725235,44.9309259 71.2875276,44.5825926 71.9620507,44.5825926 C72.7348894,44.5825926 73.4376982,44.9870576 73.7892166,45.670144 C74.1831636,44.9451852 74.9696889,44.5825926 75.7710415,44.5825926 C77.4576912,44.5825926 77.8794677,45.9492181 77.8794677,47.3296502 L77.8794677,51.3181687 L76.7548825,51.3181687 L76.7548825,47.5109465 C76.7548825,46.6605967 76.6985392,45.614465 75.5461244,45.614465 C74.2531935,45.614465 74.1124493,46.8559259 74.1124493,47.8459259 L74.1124493,51.3181687 L72.9878641,51.3181687 L72.9878641,47.5946914 C72.9878641,46.7857613 72.8895484,45.614465 71.8073917,45.614465 C70.4861751,45.614465 70.345659,46.9394444 70.345659,47.9294444 L70.345659,51.3181687 L69.2213018,51.3181687 L69.2213018,44.7638889 L70.345659,44.7638889 L70.345659,45.4750412 L70.345659,45.4750412 Z" fill="#002B42"></path>
                <path d="M84.5829539,47.3296502 C84.4282949,46.3815226 83.6267143,45.614465 82.6431014,45.614465 C81.6731751,45.614465 80.773735,46.3815226 80.6332189,47.3296502 L84.5829539,47.3296502 Z M80.5768756,48.2782305 C80.5912465,49.4916255 81.4624009,50.4675926 82.7414171,50.4675926 C83.6972005,50.4675926 84.3156083,49.8958642 84.7515276,49.1147737 L85.7070829,49.6586626 C85.0745323,50.8304115 84.0065184,51.4996914 82.6570161,51.4996914 C80.6895622,51.4996914 79.4246889,50.0072222 79.4246889,48.1245473 C79.4246889,46.1861934 80.5629608,44.5825926 82.6289585,44.5825926 C84.7515276,44.5825926 85.8756567,46.3258436 85.7636544,48.2782305 L80.5768756,48.2782305 L80.5768756,48.2782305 Z" fill="#002B42"></path>
                <path d="M88.4332327,45.4750412 L88.4612903,45.4750412 C88.8130369,44.9309259 89.3751014,44.5825926 90.0498525,44.5825926 C90.8224631,44.5825926 91.5252719,44.9870576 91.8767903,45.670144 C92.2702811,44.9451852 93.0574908,44.5825926 93.8583871,44.5825926 C95.545265,44.5825926 95.9670415,45.9492181 95.9670415,47.3296502 L95.9670415,51.3181687 L94.8424562,51.3181687 L94.8424562,47.5109465 C94.8424562,46.6605967 94.786341,45.614465 93.6336982,45.614465 C92.3407673,45.614465 92.200023,46.8559259 92.200023,47.8459259 L92.200023,51.3181687 L91.0756659,51.3181687 L91.0756659,47.5946914 C91.0756659,46.7857613 90.9773502,45.614465 89.8947373,45.614465 C88.5737488,45.614465 88.4332327,46.9394444 88.4332327,47.9294444 L88.4332327,51.3181687 L87.3088756,51.3181687 L87.3088756,44.7638889 L88.4332327,44.7638889 L88.4332327,45.4750412 L88.4332327,45.4750412 Z" fill="#002B42"></path>
                <path d="M99.1140553,47.9710905 C99.1140553,49.2544239 99.8732074,50.4675926 101.278825,50.4675926 C102.726415,50.4675926 103.484882,49.3101029 103.484882,47.9853498 C103.484882,46.674177 102.655929,45.614465 101.264682,45.614465 C99.9571521,45.614465 99.1140553,46.7441152 99.1140553,47.9710905 Z M98.0458134,39.8125309 L99.1701705,39.8125309 L99.1701705,45.6977572 L99.1984562,45.6977572 C99.7326912,45.0006379 100.561873,44.5825926 101.461313,44.5825926 C103.428995,44.5825926 104.637982,46.1861934 104.637982,48.0410288 C104.637982,49.8680247 103.414853,51.4996914 101.475912,51.4996914 C100.561873,51.4996914 99.7326912,51.1232922 99.1984562,50.4119136 L99.1701705,50.4119136 L99.1701705,51.3181687 L98.0458134,51.3181687 L98.0458134,39.8125309 Z" fill="#002B42"></path>
                <path d="M110.779175,47.3296502 C110.624744,46.3815226 109.82362,45.614465 108.839551,45.614465 C107.869853,45.614465 106.970184,46.3815226 106.82944,47.3296502 L110.779175,47.3296502 Z M106.773325,48.2782305 C106.787696,49.4916255 107.659078,50.4675926 108.937866,50.4675926 C109.893878,50.4675926 110.512286,49.8958642 110.947977,49.1147737 L111.903532,49.6586626 C111.270753,50.8304115 110.202968,51.4996914 108.853922,51.4996914 C106.886012,51.4996914 105.620682,50.0072222 105.620682,48.1245473 C105.620682,46.1861934 106.759638,44.5825926 108.825636,44.5825926 C110.947977,44.5825926 112.072334,46.3258436 111.959876,48.2782305 L106.773325,48.2782305 L106.773325,48.2782305 Z" fill="#002B42"></path>
                <path d="M114.573339,45.4750412 L114.601624,45.4750412 C114.994659,44.9594444 115.332263,44.5825926 116.063357,44.5825926 C116.443161,44.5825926 116.751795,44.7079835 117.075484,44.8892798 L116.541249,45.9071193 C116.316104,45.7538889 116.161445,45.614465 115.866498,45.614465 C114.629454,45.614465 114.573339,47.1904527 114.573339,48.0410288 L114.573339,51.3181687 L113.44921,51.3181687 L113.44921,44.7638889 L114.573339,44.7638889 L114.573339,45.4750412 L114.573339,45.4750412 Z" fill="#002B42"></path>
                <path d="M123.075933,48.0410288 C123.075933,49.3798148 124.03126,50.4675926 125.423191,50.4675926 C126.814666,50.4675926 127.770449,49.3798148 127.770449,48.0410288 C127.770449,46.715823 126.814666,45.614465 125.423191,45.614465 C124.03126,45.614465 123.075933,46.715823 123.075933,48.0410288 Z M121.951804,48.0550617 C121.951804,46.1302881 123.483795,44.5825926 125.423191,44.5825926 C127.362588,44.5825926 128.894578,46.1302881 128.894578,48.0550617 C128.894578,49.9793827 127.348445,51.4996914 125.423191,51.4996914 C123.497482,51.4996914 121.951804,49.9793827 121.951804,48.0550617 Z" fill="#002B42"></path>
                <path d="M131.662472,51.3181687 L130.538343,51.3181687 L130.538343,45.795535 L129.919935,45.795535 L129.919935,44.7638889 L130.538343,44.7638889 L130.538343,42.1555761 C130.538343,41.6119136 130.538343,40.9286008 130.833518,40.4541975 C131.198724,39.8688889 131.859788,39.6316872 132.534311,39.6316872 C132.801429,39.6316872 133.068774,39.6873663 133.335435,39.7713374 L133.335435,40.9007613 C133.082461,40.8167901 132.857544,40.7475309 132.576512,40.7475309 C131.662472,40.7475309 131.662472,41.3887449 131.662472,42.5466872 L131.662472,44.7638889 L133.335435,44.7638889 L133.335435,45.795535 L131.662472,45.795535 L131.662472,51.3181687 L131.662472,51.3181687 Z" fill="#002B42"></path>
                <path d="M139.743747,39.8125309 L139.743747,45.5309465 L139.772032,45.5583333 C140.235781,44.9309259 140.840046,44.5825926 141.655313,44.5825926 C143.482479,44.5825926 143.904484,45.8930864 143.904484,47.427428 L143.904484,51.3181687 L142.779671,51.3181687 L142.779671,47.6227572 C142.779671,46.5630453 142.69527,45.614465 141.388424,45.614465 C139.842062,45.614465 139.743747,47.0367695 139.743747,48.2082922 L139.743747,51.3181687 L138.619389,51.3181687 L138.619389,39.8125309 L139.743747,39.8125309 L139.743747,39.8125309 Z" fill="#002B42"></path>
                <path d="M150.60797,47.3296502 C150.453311,46.3815226 149.651959,45.614465 148.667889,45.614465 C147.698191,45.614465 146.798751,46.3815226 146.658463,47.3296502 L150.60797,47.3296502 Z M146.60212,48.2782305 C146.615806,49.4916255 147.487645,50.4675926 148.766661,50.4675926 C149.722217,50.4675926 150.340853,49.8958642 150.776544,49.1147737 L151.732099,49.6586626 C151.099548,50.8304115 150.031535,51.4996914 148.68226,51.4996914 C146.714578,51.4996914 145.449477,50.0072222 145.449477,48.1245473 C145.449477,46.1861934 146.587977,44.5825926 148.654203,44.5825926 C150.776544,44.5825926 151.900673,46.3258436 151.788671,48.2782305 L146.60212,48.2782305 L146.60212,48.2782305 Z" fill="#002B42"></path>
                <path d="M154.669251,51.3181687 L153.544894,51.3181687 L153.544894,44.7638889 L154.669251,44.7638889 L154.669251,51.3181687 Z M154.908083,42.2952263 C154.908083,42.7415638 154.54265,43.0905761 154.106959,43.0905761 C153.671495,43.0905761 153.306062,42.7415638 153.306062,42.2952263 C153.306062,41.8629218 153.671495,41.5005556 154.106959,41.5005556 C154.54265,41.5005556 154.908083,41.8629218 154.908083,42.2952263 Z" fill="#002B42"></path>
                <path d="M157.606175,47.9710905 C157.606175,49.2544239 158.365327,50.4675926 159.770488,50.4675926 C161.218535,50.4675926 161.977459,49.3101029 161.977459,47.9853498 C161.977459,46.674177 161.148048,45.614465 159.756574,45.614465 C158.449272,45.614465 157.606175,46.7441152 157.606175,47.9710905 L157.606175,47.9710905 Z M161.920887,50.4119136 L161.893058,50.4119136 C161.344908,51.1232922 160.515726,51.4996914 159.616286,51.4996914 C157.676433,51.4996914 156.45376,49.8680247 156.45376,48.0550617 C156.45376,46.1861934 157.648376,44.5825926 159.6302,44.5825926 C160.515726,44.5825926 161.359051,45.0006379 161.893058,45.6977572 L161.920887,45.6977572 L161.920887,39.8125309 L163.045929,39.8125309 L163.045929,51.3181687 L161.920887,51.3181687 L161.920887,50.4119136 L161.920887,50.4119136 Z" fill="#002B42"></path>
                <path d="M169.693071,47.3296502 C169.538184,46.3815226 168.73706,45.614465 167.753219,45.614465 C166.783065,45.614465 165.883624,46.3815226 165.743336,47.3296502 L169.693071,47.3296502 Z M165.686993,48.2782305 C165.700908,49.4916255 166.572747,50.4675926 167.851763,50.4675926 C168.807318,50.4675926 169.425726,49.8958642 169.861645,49.1147737 L170.8172,49.6586626 C170.184878,50.8304115 169.116636,51.4996914 167.767134,51.4996914 C165.79968,51.4996914 164.53435,50.0072222 164.53435,48.1245473 C164.53435,46.1861934 165.673078,44.5825926 167.739304,44.5825926 C169.861645,44.5825926 170.985546,46.3258436 170.873544,48.2782305 L165.686993,48.2782305 L165.686993,48.2782305 Z" fill="#002B42"></path>
                <rect fill="#002B42" x="172.391164" y="39.8125309" width="1.12412903" height="11.5056379"></rect>
                <path d="M176.621247,47.9710905 C176.621247,49.2544239 177.380171,50.4675926 178.78556,50.4675926 C180.232922,50.4675926 180.992302,49.3101029 180.992302,47.9853498 C180.992302,46.674177 180.163576,45.614465 178.771189,45.614465 C177.4648,45.614465 176.621247,46.7441152 176.621247,47.9710905 L176.621247,47.9710905 Z M176.677362,45.6977572 L176.705191,45.6977572 C177.253569,44.9727984 178.069065,44.5825926 178.982191,44.5825926 C180.922044,44.5825926 182.144717,46.2418724 182.144717,48.0550617 C182.144717,49.9234774 180.950101,51.4996914 178.968276,51.4996914 C178.069065,51.4996914 177.239198,51.1094856 176.705191,50.398107 L176.677362,50.398107 L176.677362,55 L175.552776,55 L175.552776,44.7638889 L176.677362,44.7638889 L176.677362,45.6977572 L176.677362,45.6977572 Z" fill="#002B42"></path>
                <path d="M184.308574,47.9710905 C184.308574,49.2544239 185.067726,50.4675926 186.473115,50.4675926 C187.920933,50.4675926 188.680085,49.3101029 188.680085,47.9853498 C188.680085,46.674177 187.850675,45.614465 186.458972,45.614465 C185.152355,45.614465 184.308574,46.7441152 184.308574,47.9710905 Z M189.747871,51.3181687 L188.623742,51.3181687 L188.623742,50.4119136 L188.595684,50.4119136 C188.019477,51.1373251 187.245954,51.4996914 186.318684,51.4996914 C184.37906,51.4996914 183.156387,49.8680247 183.156387,48.0550617 C183.156387,46.1861934 184.351002,44.5825926 186.332827,44.5825926 C187.232267,44.5825926 188.047535,45.0006379 188.595684,45.6977572 L188.623742,45.6977572 L188.623742,44.7638889 L189.747871,44.7638889 L189.747871,51.3181687 Z" fill="#002B42"></path>
                <polygon fill="#002B42" points="190.731256 44.7638889 192.038329 44.7638889 194.371445 49.4635597 196.507929 44.7638889 197.786717 44.7638889 192.909712 55 191.630468 55 193.766724 50.7045679 190.731256 44.7638889"></polygon>
            </g>
        </g>
    </g>
</svg>
